<?xml version="1.0" encoding="UTF-8"?>
<svg id="Layer_1" xmlns="http://www.w3.org/2000/svg" version="1.1" viewBox="0 0 100 106">
  <!-- Generator: Adobe Illustrator 30.3.0, SVG Export Plug-In . SVG Version: 2.1.3 Build 182)  -->
  <path d="M42.4,87.5c-.2-1.8-.4-3.7-.6-5.5-.3-2.1-.5-4.3-.8-6.4-.3-2.1-.5-4.2-.9-6.3-.3-.6-.7-1.1-1.2-1.5-2-2.6-4-5.3-5.9-7.9-.6-.8-1.1-1.7-1.6-2.6,0-.4,0-.8,0-1.2.5,0,.9.2,1.3.4,2.4,2.7,4.4,5.7,6.1,8.9.2.4.5.8.9,1.1-.2-1.6-.5-3.3-.7-4.9-.9-5.9-3.4-11.3-5.8-16.6-.1-.3-.4-.6-.7-.7-3.2-1.2-5.5-3.7-7.9-5.9-.1-.1-.2-.3-.3-.4-.2-.4-.2-.9-.2-1.3.3-.3.8-.4,1.3-.4.6.2,1.2.5,1.7.9,1.3,1.4,2.5,2.8,3.7,4.2.2.3.3.7.3,1-2.2-1.7-3.2-4.9-6.5-5.6.5,2,5.6,6.2,7.8,6.4-1.2-2.1-2.2-4-3.4-5.9-1-1.5-2.2-2.8-3.3-4.2-.2-.3-.3-.6-.5-.9l.2-.2,1.3,1.5.2-.2c-.8-1.1-1.6-2.1-2.4-3.2-1.2-1.7-2.5-3.4-3.7-5.1-.3-.6-.4-1.2-.5-1.8,1.8.8,3.4,2.2,4.4,3.9,1.6,2.8,3.6,5.4,4.6,8.3,1.8,5.1,4.9,9.5,6.7,14.6.4,1.3,1,2.5,1.6,3.7-.2-1.3-.5-2.7-.7-4-.4-2.5-.8-4.9-1.2-7.4-.1-.7.1-1.5,1.2-1.3.3,0,.6.3.8.6.4,1,.6,2.1.7,3.2,0,3.7-.1,7.5,0,11.2.2,1.7.5,3.4,1,5.1.5,3.1,1,6.1,1.4,9.2.4,2.9.8,5.8,1.2,8.7.2,1.5.3,2.9.6,4.4.1-1.7.3-3.4.5-5.1.1-1.7.4-3.4.7-5,.4-1.6.2-3.4,1.1-4.9h.4c.2.6.4,1.1.4,1.7-.2,1.8-.5,3.6-.9,5.3-.8,3.1-1.3,6.3-1.7,9.6-.1,2.1,0,4.3,0,6.4,0,1.5.3,3,.4,4.5,0,.4,0,.7,0,1.1h-.3c-.2-.2-.3-.5-.4-.8-.2-1.8-.4-3.6-.4-5.4,0-1.1-.4-2.1-1.1-2.8-2.8-3-5.1-6.4-7-10-.2-.5-.3-1.1-.3-1.6.5.2,1,.5,1.4.9,2,3,3.9,6,5.8,9.1.3.4.5.8.8,1.2h.3ZM38.7,66.6c-1.8-3.6-3.8-7.1-6.8-9.8,1.8,3.5,4.1,6.8,6.8,9.8ZM36.7,41.6c-.4,3.1.5,5.7,1.2,8.4.1-1.9.2-3.9,0-5.8,0-.9,0-2-1.3-2.6ZM22,24.7l-.3.3c2.1,2.8,4.1,5.6,6.2,8.5-1.8-3.1-3.1-6.4-5.9-8.7h0ZM35.4,78l-.3.2,4.5,7.2.4-.2-4.6-7.2ZM45.5,70.4h-.5c-.4,1.9-.8,3.8-1.1,5.7h.3c0,0,1.3-5.7,1.3-5.7Z"/>
  <path d="M54.1,59c.7-1.3,1.4-2.6,2.3-3.8.6-.8,1.2-1.6,2-2.2.4-.2.8-.3,1.3-.3.1.4.2.8.1,1.3-1.3,2.4-2.6,4.7-4,7-1,1.6-2.1,3-3,4.6-.4.8-.6,1.7-.6,2.6-.4,2.9-.8,5.8-1.2,8.7.8-1.8,1.5-3.6,2.4-5.4.9-1.7,2-3.3,3-5,.2-.3.5-.6.9-.7.4-.2.9-.1,1.2,0,.2.3.2.8,0,1.1-1,1.8-2.1,3.6-3.2,5.4-1.4,2.5-2.7,5.1-4.3,7.6-.5,1-.8,2.1-.6,3.2,0,3.1-.1,6.3-.2,9.4,0,.3,0,.6-.2.9h-.5c0-1.1,0-2.3,0-3.4,0-3.3.1-6.6.4-9.9.2-2.3.7-4.6,1-6.9.6-3.5,1.1-6.9,1.7-10.4.8-4.3,2-8.5,3.5-12.6.1-.3.2-.7.2-1.1-.1-1.7-.1-3.5,0-5.3.4-2.9,1.2-5.7,1.8-8.5,0-.3.3-.6.5-.8.4,0,.8.3,1,.6.2.7.3,1.4.3,2.1-.1,1.3-.4,2.5-.6,4.1.7-1.4,1.3-2.6,1.9-3.8,1.4-2.4,2.8-4.9,4.3-7.3.4-.4.4-1,0-1.4-.2-.3-.3-.6-.2-.9.5-3.3,1.6-6.5,3.3-9.3.2-.3.4-.5.5-.8h.3c.1.9.1,1.8,0,2.7-.9,2.2-2,4.4-3,6.6-.2.5-.3,1-.4,1.5h.2c.2,0,.3-.2.5-.3,1.7-1.8,3.4-3.6,4.9-5.4.5-.8,1-1.7,1.4-2.6,1-1.7,2-3.3,3.1-4.8.5-.6,1.2-.9,2-1,1-.1,1.5.8,1.2,1.8-.8,2.3-2.6,3.9-4.4,5.4-.8.5-1.6,1-2.4,1.4,0,0-.1.1-.2.2.9,0,1.9,0,2.9,0,.3,0,.5.3.6.6,0,.3-.2.6-.5.7-1.8,1.2-3.8,1.8-5.9,1.9-.3,0-.5.1-.7.3-.8,1-1.6,1.9-2.3,3-.9,1.3-1.7,2.7-2.6,4.3.9-.6,1.6-1.1,2.4-1.5.7-.4,1.5-1,2.2,0,.4.5-.2,1.7-1.1,2.3-1,.7-2,1.4-3,2.1-1.1.8-2.2,1.6-3.3,2.4-.2.2-.4.5-.5.8-1.5,3.7-3,7.4-4.4,11.2-.9,2.5-1.6,5-2.5,7.5h.2ZM56.5,47.9h.4c.3-1.1.6-2.3.9-3.5.6-2.5,1.1-5,1.6-7.5,0-.5,0-1-.3-1.4h-.5c-1.3,4-2,8.2-2.1,12.4h0ZM59.1,53.7c-2.1.8-6.1,7.7-6.1,10.2,2.3-3.3,4.8-6.3,6.1-10.2ZM73,21.5h.2c0,0,.2,0,.2,0,.5-.3.5-1.4,1.5-.7,0,0,.2,0,.2-.2,1.3-1.2,2.7-2.3,3.3-4,0-.3.2-.7.2-1-.4,0-.9,0-1.3,0-.4.2-.8.5-1.1.9-.6.7-1,1.5-1.6,2.3-.6.9-1.2,1.8-1.8,2.7ZM51.4,77.4c2-3.8,4.8-7,6.4-11-3.6,2.8-4.7,7.1-6.4,11ZM68.3,33c-2.1-.1-6.1,3.2-6.4,5.2,2-1.9,4.4-3,6.4-5.2ZM66.1,26.1h.3c1.1-2.1,2.6-4.2,2.6-6.9-.7,1.1-1.3,2.2-1.8,3.4-.4,1.1-.7,2.3-1,3.4h0ZM70,25.5c1.7.2,3.5-.4,4.8-1.6-1.7,0-3.4.5-4.8,1.6h0Z"/>
  <path d="M51.8,22.6c.2-1.6.4-3.2.6-4.8.3-2.7.3-5.5.8-8.2.4-2,1-3.9,1.7-5.8.3-.4.6-.6,1-.8.4.3.6.8.8,1.2-.1,2.1-.4,4.1-.9,6.2-.3,1.4-.9,2.8-1.7,4-1.4,2-1.4,4.3-1.6,6.4-.3,3.5-.3,6.9-.3,10.5.2-1,.4-1.9.6-2.9.5-2.5,1.5-4.9,3-7,.1-.2.3-.3.5-.4.5-.2,1-.2,1.5-.3,0,.5,0,1,0,1.5-1.2,2.7-2.5,5.4-3.8,8.1-.4.8-.7,1.6-1,2.3-.6-.3-1-.3-1.1.5-.5,4.5-1.1,9-1.6,13.5-.3,2.5-.4,5-.3,7.5.3-1.8.4-3.7.8-5.5.4-1.6.9-3.2,1.5-4.7.4-.4.8-.7,1.3-.9.3.4.5.8.7,1.2,0,.6,0,1.3-.3,1.9-1.4,3.6-2.8,7.2-4.2,10.8-.3,1.1-.4,2.1-.4,3.2-.3,5.7-.5,11.4-.7,17-.1,3.2-.4,6.3-.5,9.4,0,2.3,0,4.7,0,7,0,.4-.1.7-.3,1.1h-.5c0-1.5.2-3,.2-4.4,0-2.2.1-4.5.2-6.7.2-3.8.4-7.5.6-11.3,0-1.1-.2-2.2-.8-3.1-.9-1.9-1.6-4-2.2-6.1-.6-2.2-1.2-4.4-1.7-6.5,0-.5,0-.9.2-1.3.5.1.9.3,1.3.6,1.1,1.1,1.3,2.6,1.5,4.1.5,2.8,1,5.6,1.5,8.5.6-9,1.2-17.9,1.9-27l-.4,1.1c-.2-.2-.4-.4-.5-.6-.7-3.7-1.5-7.4-2.1-11.1-.1-.6-.5-1.7.4-2,.9-.2,1.1.9,1.2,1.6.4,2.1.7,4.3,1,6.4.2,1.4.4,2.7.7,4.1.9-5.9,1.4-11.9,1.5-17.9h0ZM55.8,3.6c-1.9,3.2-1.6,6.8-2.2,10.4,1.3-2.3,2.2-4.9,2.7-7.5.2-1,.4-1.9-.5-2.9ZM44.4,55.5l-.3.2c.4,3.5,2.1,9.2,3,10-.2-1.1-.4-2.3-.6-3.4-.3-1.7-.7-3.5-1.1-5.2-.3-.6-.6-1.1-1-1.6ZM57.3,21.4l-.4-.3c-.6.6-1.1,1.3-1.6,2-1.3,2.5-2.1,5.1-2.4,7.9,1.5-3.3,2.9-6.4,4.4-9.6ZM53.2,43.6c-1.3.7-2.2,5.4-2.4,8.4,1.9-3.8,2.8-6.9,2.4-8.4ZM47.9,29.5h-.5c.6,3.2,1.2,6.4,1.8,9.5-.2-3.2,0-6.5-1.3-9.5h0Z"/>
  <path d="M51.8,22.6l-.3,1.7c-1.5-1.3-3.4-9.9-2.8-12.4.8,0,1.5.5,1.6,1.3.4,1.3.7,2.7.9,4,.3,1.8.4,3.6.6,5.4h0ZM49.2,12.9c-.7,1.2.4,6.7,1.7,8.9-.4-3.2,0-6.3-1.7-8.9Z"/>
</svg>